HIERARCHY
ROOT Hips
{
  OFFSET 45.814 100.09 10.1648
  CHANNELS 6 Xposition Yposition Zposition Zrotation Xrotation Yrotation
  JOINT spine
  {
    OFFSET 0 8.81704 0.507024
    CHANNELS 3 Zrotation Xrotation Yrotation
    JOINT spine1
    {
      OFFSET 0 10.7766 0
      CHANNELS 3 Zrotation Xrotation Yrotation
      JOINT spine2
      {
        OFFSET 0 10.3259 0
        CHANNELS 3 Zrotation Xrotation Yrotation
        JOINT Neck
        {
          OFFSET 0 26.511 1.26395
          CHANNELS 3 Zrotation Xrotation Yrotation
          JOINT Head
          {
            OFFSET 0 8.00966 0
            CHANNELS 3 Zrotation Xrotation Yrotation
            End Site
            {
              OFFSET 0 19.3879 -6.39386
            }
          }
        }
        JOINT RightShoulder
        {
          OFFSET -4.34795 11.1512 -0.605422
          CHANNELS 3 Zrotation Xrotation Yrotation
          JOINT RightArm
          {
            OFFSET 0 14.6258 0
            CHANNELS 3 Zrotation Xrotation Yrotation
            JOINT RightArmRoll
            {
              OFFSET 0 7.38339 0
              CHANNELS 3 Zrotation Xrotation Yrotation
              JOINT RightForeArm
              {
                OFFSET 0 21.5052 0
                CHANNELS 3 Zrotation Xrotation Yrotation
                JOINT RightForeArmRoll
                {
                  OFFSET 0 8.28532 0
                  CHANNELS 3 Zrotation Xrotation Yrotation
                  JOINT RightHand
                  {
                    OFFSET 0 16.6268 0
                    CHANNELS 3 Zrotation Xrotation Yrotation
                    End Site
                    {
                      OFFSET 0 0 0
                    }
                  }
                }
              }
            }
          }
        }
        JOINT LeftShoulder
        {
          OFFSET 4.34795 11.1512 -0.605422
          CHANNELS 3 Zrotation Xrotation Yrotation
          JOINT LeftArm
          {
            OFFSET 0 14.6258 0
            CHANNELS 3 Zrotation Xrotation Yrotation
            JOINT LeftArmRoll
            {
              OFFSET 0 7.3834 0
              CHANNELS 3 Zrotation Xrotation Yrotation
              JOINT LeftForeArm
              {
                OFFSET 0 21.5052 0
                CHANNELS 3 Zrotation Xrotation Yrotation
                JOINT LeftForeArmRoll
                {
                  OFFSET 0 8.28532 0
                  CHANNELS 3 Zrotation Xrotation Yrotation
                  JOINT LeftHand
                  {
                    OFFSET 0 16.6268 0
                    CHANNELS 3 Zrotation Xrotation Yrotation
                    End Site
                    {
                      OFFSET 0 0 0
                    }
                  }
                }
              }
            }
          }
        }
      }
    }
  }
  JOINT RightUpLeg
  {
    OFFSET -7.8151 -1.43309 -1.20217
    CHANNELS 3 Zrotation Xrotation Yrotation
    JOINT RightUpLegRoll
    {
      OFFSET 0 19.4959 0
      CHANNELS 3 Zrotation Xrotation Yrotation
      JOINT RightLeg
      {
        OFFSET 0 -24.1427 0
        CHANNELS 3 Zrotation Xrotation Yrotation
        JOINT RightLegRoll
        {
          OFFSET 0 24.2217 0
          CHANNELS 3 Zrotation Xrotation Yrotation
          JOINT RightFoot
          {
            OFFSET 0 20.1605 0
            CHANNELS 3 Zrotation Xrotation Yrotation
            JOINT RightToeBase
            {
              OFFSET 0 16.8532 0
              CHANNELS 3 Zrotation Xrotation Yrotation
              End Site
              {
                OFFSET 0.00714343 8.16186 -0.940781
              }
            }
          }
        }
      }
    }
  }
  JOINT LeftUpLeg
  {
    OFFSET 7.8151 -1.43309 -1.20217
    CHANNELS 3 Zrotation Xrotation Yrotation
    JOINT LeftUpLegRoll
    {
      OFFSET 0 19.496 0
      CHANNELS 3 Zrotation Xrotation Yrotation
      JOINT LeftLeg
      {
        OFFSET 0 24.1426 0
        CHANNELS 3 Zrotation Xrotation Yrotation
        JOINT LeftLegRoll
        {
          OFFSET 0 24.4456 0
          CHANNELS 3 Zrotation Xrotation Yrotation
          JOINT LeftFoot
          {
            OFFSET 0 19.9366 0
            CHANNELS 3 Zrotation Xrotation Yrotation
            JOINT LeftToeBase
            {
              OFFSET 0 16.8532 0
              CHANNELS 3 Zrotation Xrotation Yrotation
              End Site
              {
                OFFSET -0.0320138 8.16186 -0.940781
              }
            }
          }
        }
      }
    }
  }
}
MOTION
Frames: 10
Frame Time: 0.00208333
49.7467 99.9953 13.5752 1.58619 -0.300629 39.8297 -0.00562025 -0.821289 0.717346 -0.033912 2.36025 1.42561 -0.0510646 4.00511 1.42729 -31.6808 7.58363 13.3669 12.6551 -6.86228 9.21791 34.2162 9.94791 12.8189 163.4 33.5935 -72.8389 4.05581e-006 -1.03744e-007 6.3329e-006 33.3819 60.4425 -21.3503 -1.28401e-005 -7.39048e-006 -3.00594 8.02889 -4.9514 0.697582 -65.0072 -17.9742 10.7094 -80.1921 0.13018 32.2807 -6.05746e-006 -1.16678e-005 4.52069e-006 -18.9496 75.7992 17.2636 1.33726e-005 9.69706e-006 2.99999 -8.02982 -4.95092 -0.697517 172.872 3.8333 2.75438 180 7.01504e-015 178.749 179.15 19.3289 179.484 1.81564e-007 -4.47947e-006 0.715695 -25.9909 74.6225 27.4169 8.17918 26.0758 -2.37737 -174.711 8.93954 1.77253 4.54188e-006 -4.6773e-006 -0.880831 -1.60436 -12.5044 0.450603 3.3947e-006 -4.48944e-006 -0.0739126 16.8446 69.5409 -20.758 -8.1365 25.2327 3.48774 
49.7009 99.9966 13.6192 1.60151 -0.300497 39.9075 -0.00156783 -0.82635 0.714548 -0.0245376 2.35018 1.42026 -0.0416159 3.99504 1.42177 -31.526 7.6865 13.3801 12.4903 -6.89911 9.21095 34.4674 9.95839 12.747 162.858 33.5077 -72.3308 4.05581e-006 -1.03744e-007 6.3329e-006 33.2968 60.4242 -21.2672 -1.28401e-005 -7.39048e-006 -3.00594 8.02889 -4.9514 0.697582 -64.9794 -17.9594 10.7034 -80.3434 0.0644711 32.0538 -6.05746e-006 -1.16678e-005 4.52069e-006 -18.788 75.8149 17.1607 1.33726e-005 9.69706e-006 2.99999 -8.02982 -4.95092 -0.697517 172.874 3.77816 2.76116 180 7.01504e-015 178.749 179.127 19.2705 179.489 1.81564e-007 -4.47947e-006 0.712699 -25.9869 74.6182 27.41 8.1789 26.0718 -2.38231 -174.713 8.927 1.78642 4.54188e-006 -4.6773e-006 -0.880762 -1.5857 -12.4614 0.452393 3.3947e-006 -4.48944e-006 -0.073903 16.8372 69.5169 -20.738 -8.1365 25.2327 3.48774 
49.655 99.9954 13.6453 1.61679 -0.299972 39.9854 0.00242372 -0.831509 0.711745 -0.0152602 2.33991 1.41493 -0.0322646 3.98477 1.41628 -31.3715 7.78989 13.3935 12.3253 -6.93638 9.20377 34.7197 9.96954 12.6752 162.321 33.4124 -71.8251 4.05581e-006 -1.03744e-007 6.3329e-006 33.2121 60.4061 -21.1844 -1.28401e-005 -7.39048e-006 -3.00594 8.02889 -4.9514 0.697582 -64.9519 -17.9446 10.6973 -80.493 -0.00193389 31.8221 -6.05746e-006 -1.16678e-005 4.52069e-006 -18.6304 75.8256 17.0596 1.33726e-005 9.69706e-006 2.99999 -8.02982 -4.95092 -0.697517 172.875 3.72358 2.76837 180 7.01504e-015 178.749 179.103 19.2122 179.494 1.81564e-007 -4.47947e-006 0.709732 -25.9832 74.614 27.4033 8.17862 26.0677 -2.38742 -174.715 8.91464 1.80038 4.54188e-006 -4.6773e-006 -0.880659 -1.56721 -12.4183 0.454183 3.3947e-006 -4.48944e-006 -0.0739121 16.8297 69.493 -20.7181 -8.1365 25.2327 3.48774 
49.622 100.004 13.6452 1.63206 -0.299172 40.0635 0.00637247 -0.836737 0.708939 -0.00605132 2.32951 1.40962 -0.0229822 3.97437 1.41081 -31.2174 7.89363 13.407 12.1601 -6.97396 9.19641 34.9726 9.98115 12.6034 161.787 33.3084 -71.3214 4.05581e-006 -1.03744e-007 6.3329e-006 33.1279 60.3881 -21.1017 -1.28401e-005 -7.39048e-006 -3.00594 8.02889 -4.9514 0.697582 -64.9246 -17.9297 10.6912 -80.6414 -0.0689333 31.5872 -6.05746e-006 -1.16678e-005 4.52069e-006 -18.4755 75.8326 16.9597 1.33726e-005 9.69706e-006 2.99999 -8.02982 -4.95092 -0.697517 172.876 3.66939 2.77589 180 7.01504e-015 178.75 179.079 19.1539 179.499 1.81564e-007 -4.47947e-006 0.706786 -25.9796 74.6099 27.3968 8.17833 26.0636 -2.39263 -174.717 8.9024 1.8144 4.54188e-006 -4.6773e-006 -0.880533 -1.54883 -12.3751 0.455972 3.3947e-006 -4.48944e-006 -0.0739343 16.8222 69.4691 -20.6984 -8.1365 25.2327 3.48774 
49.5826 100.008 13.6628 1.6473 -0.298216 40.1417 0.0102966 -0.842004 0.706132 0.00311757 2.31902 1.40432 -0.01374 3.96389 1.40534 -31.0634 7.99758 13.4206 11.9948 -7.01171 9.18897 35.2261 9.99301 12.5318 161.256 33.1967 -70.8197 4.05581e-006 -1.03744e-007 6.3329e-006 33.044 60.3701 -21.0192 -1.28401e-005 -7.39048e-006 -3.00594 8.02889 -4.9514 0.697582 -64.8973 -17.9148 10.6851 -80.7894 -0.13642 31.3505 -6.05746e-006 -1.16678e-005 4.52069e-006 -18.3223 75.8375 16.8606 1.33726e-005 9.69706e-006 2.99999 -8.02982 -4.95092 -0.697517 172.876 3.61542 2.78359 180 7.01504e-015 178.75 179.055 19.0958 179.504 1.81564e-007 -4.47947e-006 0.703851 -25.9761 74.6059 27.3904 8.17804 26.0594 -2.39791 -174.719 8.89023 1.82846 4.54188e-006 -4.6773e-006 -0.880394 -1.53052 -12.3319 0.457761 3.3947e-006 -4.48944e-006 -0.0739639 16.8147 69.4452 -20.6787 -8.1365 25.2327 3.48774 
49.5457 100.01 13.6692 1.66254 -0.297222 40.2198 0.0142141 -0.84728 0.703324 0.012275 2.30852 1.39902 -0.00450939 3.95338 1.39988 -30.9095 8.10156 13.4342 11.8294 -7.04952 9.18151 35.4796 10.0049 12.4601 160.727 33.0781 -70.3194 4.05581e-006 -1.03744e-007 6.3329e-006 32.9602 60.3521 -20.9367 -1.28401e-005 -7.39048e-006 -3.00594 8.02889 -4.9514 0.697582 -64.87 -17.8999 10.679 -80.9377 -0.204281 31.1133 -6.05746e-006 -1.16678e-005 4.52069e-006 -18.1694 75.8419 16.7617 1.33726e-005 9.69706e-006 2.99999 -8.02982 -4.95092 -0.697517 172.876 3.56151 2.79133 180 7.01504e-015 178.75 179.032 19.0377 179.509 1.81564e-007 -4.47947e-006 0.70092 -25.9727 74.6019 27.384 8.17774 26.0552 -2.40321 -174.722 8.87808 1.84252 4.54188e-006 -4.6773e-006 -0.88025 -1.51222 -12.2886 0.459549 3.3947e-006 -4.48944e-006 -0.0739954 16.8071 69.4214 -20.6591 -8.1365 25.2327 3.48774 
49.4746 100.017 13.8118 1.67779 -0.296306 40.2979 0.0181432 -0.852537 0.700516 0.0214495 2.29805 1.39372 0.00473835 3.94292 1.39442 -30.7555 8.20543 13.4479 11.6641 -7.08723 9.1741 35.733 10.0167 12.3884 160.201 32.9536 -69.8204 4.05581e-006 -1.03744e-007 6.3329e-006 32.8764 60.3339 -20.8543 -1.28401e-005 -7.39048e-006 -3.00594 8.02889 -4.9514 0.697582 -64.8427 -17.885 10.6729 -81.0871 -0.272399 30.8771 -6.05746e-006 -1.16678e-005 4.52069e-006 -18.0156 75.8473 16.6622 1.33726e-005 9.69706e-006 2.99999 -8.02982 -4.95092 -0.697517 172.877 3.50749 2.79899 180 7.01504e-015 178.751 179.008 18.9795 179.514 1.81564e-007 -4.47947e-006 0.697982 -25.9692 74.5978 27.3776 8.17745 26.051 -2.40847 -174.724 8.86589 1.85656 4.54188e-006 -4.6773e-006 -0.880114 -1.4939 -12.2454 0.461337 3.3947e-006 -4.48944e-006 -0.0740232 16.7997 69.3975 -20.6396 -8.1365 25.2327 3.48774 
49.4453 100.02 13.7985 1.69305 -0.295587 40.376 0.022102 -0.857745 0.697712 0.0306697 2.28768 1.3884 0.0140319 3.93255 1.38894 -30.6015 8.30903 13.4616 11.4989 -7.12473 9.1668 35.9858 10.0282 12.3166 159.677 32.8239 -69.3222 4.05581e-006 -1.03744e-007 6.3329e-006 32.7925 60.3156 -20.772 -1.28401e-005 -7.39048e-006 -3.00594 8.02889 -4.9514 0.697582 -64.8153 -17.8701 10.6669 -81.2382 -0.340652 30.6433 -6.05746e-006 -1.16678e-005 4.52069e-006 -17.8596 75.8551 16.5616 1.33726e-005 9.69706e-006 2.99999 -8.02982 -4.95092 -0.697517 172.878 3.4532 2.80643 180 7.01504e-015 178.751 178.984 18.9212 179.519 1.81564e-007 -4.47946e-006 0.69503 -25.9656 74.5937 27.3711 8.17716 26.0468 -2.41365 -174.726 8.85361 1.87056 4.54188e-006 -4.6773e-006 -0.879995 -1.4755 -12.2022 0.463125 3.3947e-006 -4.48944e-006 -0.0740416 16.7924 69.3736 -20.62 -8.1365 25.2327 3.48774 
49.3859 100.026 13.8089 1.70834 -0.29518 40.4539 0.0261086 -0.862875 0.69491 0.0399641 2.27747 1.38307 0.0233999 3.92235 1.38344 -30.4473 8.4122 13.4752 11.3339 -7.16187 9.1597 36.238 10.039 12.2448 159.154 32.6898 -68.8243 4.05581e-006 -1.03744e-007 6.3329e-006 32.7085 60.2971 -20.6897 -1.28401e-005 -7.39048e-006 -3.00594 8.02889 -4.9514 0.697582 -64.7877 -17.8553 10.6608 -81.3917 -0.408911 30.4134 -6.05746e-006 -1.16678e-005 4.52069e-006 -17.6999 75.867 16.4591 1.33726e-005 9.69706e-006 2.99999 -8.02982 -4.95092 -0.697517 172.879 3.39845 2.81352 180 7.01504e-015 178.751 178.961 18.8629 179.524 1.81564e-007 -4.47946e-006 0.692054 -25.9618 74.5895 27.3643 8.17687 26.0428 -2.4187 -174.728 8.8412 1.88449 4.54188e-006 -4.6773e-006 -0.879902 -1.45698 -12.1591 0.464913 3.3947e-006 -4.48944e-006 -0.0740451 16.7852 69.3496 -20.6004 -8.1365 25.2327 3.48774 
49.3481 100.032 13.8439 1.72366 -0.295201 40.5316 0.0301812 -0.867897 0.692114 0.0493614 2.26748 1.37771 0.0328711 3.91235 1.37791 -30.2927 8.51478 13.4888 11.1693 -7.19854 9.15286 36.489 10.0492 12.1728 158.632 32.5523 -68.3262 4.05581e-006 -1.03744e-007 6.3329e-006 32.6241 60.2782 -20.6073 -1.28401e-005 -7.39048e-006 -3.00594 8.02889 -4.9514 0.697582 -64.7599 -17.8405 10.6548 -81.5483 -0.477045 30.1887 -6.05746e-006 -1.16678e-005 4.52069e-006 -17.5352 75.8845 16.354 1.33726e-005 9.69706e-006 2.99999 -8.02982 -4.95092 -0.697517 172.881 3.34309 2.82014 180 7.01504e-015 178.752 178.937 18.8044 179.529 1.81564e-007 -4.47946e-006 0.689046 -25.9578 74.5851 27.3573 8.17659 26.0389 -2.42359 -174.73 8.82859 1.89834 4.54188e-006 -4.6773e-006 -0.879846 -1.43828 -12.1161 0.466701 3.3947e-006 -4.48944e-006 -0.0740281 16.7783 69.3256 -20.5808 -8.1365 25.2327 3.48774 
